<svg id="Layer_1" enable-background="new 0 0 512 512" height="512" viewBox="0 0 512 512" width="512" xmlns="http://www.w3.org/2000/svg"><g><g><g><g><g><g><g id="XMLID_1673_"><g id="XMLID_1674_"><g id="XMLID_1675_"><g id="XMLID_1676_"><g id="XMLID_1677_"><g id="XMLID_1678_"><g id="XMLID_1679_"><g id="XMLID_1680_"><g id="XMLID_1681_"><g id="XMLID_1682_"><g id="XMLID_1683_"><g id="XMLID_1684_"><g id="XMLID_1685_"><g id="XMLID_1686_"><g id="XMLID_1687_"><circle cx="256" cy="256" fill="#7efcfc" r="256"/></g></g></g></g></g></g></g></g></g></g></g></g></g></g></g></g></g></g></g></g><path d="m493.463 160.222-85.684-85.684-20.701 43.012-329.814 162.687 142.149 142.149-18.488 14.233 75.378 75.378c141.245-.165 255.697-114.714 255.697-255.997 0-33.867-6.592-66.19-18.537-95.778z" fill="#37d1f4"/><g><ellipse cx="399.34" cy="221.657" fill="#007578" rx="53.728" ry="53.728" transform="matrix(.235 -.972 .972 .235 89.993 557.677)"/><path d="m453.07 221.66c0 26.8-19.63 49.01-45.29 53.06-2.75.43-5.57.66-8.44.66-23.34 0-43.2-14.88-50.62-35.67-2.01-5.64-3.11-11.71-3.11-18.05z" fill="#005457"/><path d="m201.659 441.462h-4.109c-17.111 0-30.982-13.871-30.982-30.982v-129.61h66.073v129.61c-.001 17.111-13.872 30.982-30.982 30.982z" fill="#005457"/><path d="m81.118 287.336h35.437l20.158-57.211-20.158-74.146h-35.437c-24.105 0-43.647 19.541-43.647 43.647v44.063c0 24.106 19.542 43.647 43.647 43.647z" fill="#ffe05c"/><path d="m136.71 230.13-20.15 57.18v.02l-.01.01h-35.43c-24.11 0-43.65-19.55-43.65-43.65v-22.03h96.94z" fill="#ffbc00"/><path d="m348.725 118.843v205.628c-55.267-16.645-141.681-37.14-232.169-37.14v-131.348c90.487 0 176.902-20.495 232.169-37.14z" fill="#ff5c5c"/><path d="m348.72 221.66v102.81c-3.99-1.2-8.14-2.42-12.45-3.66-55.31-15.83-135.76-33.48-219.71-33.48v-65.67z" fill="#d01273"/><path d="m336.267 74.538h71.512v294.238h-71.512z" fill="#fff"/><path d="m336.27 221.66h71.51v147.12h-71.51z" fill="#dbdbdb"/></g></g></svg>